<?xml version="1.0" encoding="UTF-8"?>
<!DOCTYPE svg PUBLIC "-//W3C//DTD SVG 1.1//EN" "http://www.w3.org/Graphics/SVG/1.1/DTD/svg11.dtd">
<svg xmlns="http://www.w3.org/2000/svg" version="1.1" width="512px" height="512px" style="shape-rendering:geometricPrecision; text-rendering:geometricPrecision; image-rendering:optimizeQuality; fill-rule:evenodd; clip-rule:evenodd" xmlns:xlink="http://www.w3.org/1999/xlink">
<g><path style="opacity:0.985" fill="#f8b222" d="M 102.5,21.5 C 102.831,46.339 102.498,71.0056 101.5,95.5C 100.118,94.1995 98.4517,93.3661 96.5,93C 91.9244,92.7285 87.5911,91.8951 83.5,90.5C 83.5,80.8333 83.5,71.1667 83.5,61.5C 84.5832,61.5394 85.5832,61.8728 86.5,62.5C 88.3237,56.616 88.8237,50.616 88,44.5C 82.014,36.3844 82.8473,28.8844 90.5,22C 94.5924,20.3682 98.5924,20.2015 102.5,21.5 Z"/></g>
<g><path style="opacity:0.983" fill="#f6ab27" d="M 102.5,21.5 C 108.584,23.7556 112.417,28.0889 114,34.5C 117.161,45.7876 117.327,57.1209 114.5,68.5C 115.823,70.1651 117.156,71.8317 118.5,73.5C 118.5,99.1667 118.5,124.833 118.5,150.5C 112.62,160.927 107.287,171.593 102.5,182.5C 102.83,163.659 102.497,144.993 101.5,126.5C 104.903,123.859 106.57,120.359 106.5,116C 105.848,108.891 104.181,102.058 101.5,95.5C 102.498,71.0056 102.831,46.339 102.5,21.5 Z"/></g>
<g><path style="opacity:0.986" fill="#e84d3a" d="M 432.5,30.5 C 431.168,40.4777 430.501,50.811 430.5,61.5C 431.139,81.3066 431.139,100.973 430.5,120.5C 421.812,119.604 413.812,116.937 406.5,112.5C 406.828,101.986 406.494,91.6532 405.5,81.5C 407.593,77.6456 409.426,73.6456 411,69.5C 413.303,58.1839 415.303,46.8506 417,35.5C 421.268,30.4639 426.435,28.7972 432.5,30.5 Z"/></g>
<g><path style="opacity:0.942" fill="#e74739" d="M 432.5,30.5 C 440.745,33.3163 444.078,39.1496 442.5,48C 441.911,63.5063 438.744,78.3396 433,92.5C 436.073,93.6168 439.24,93.7835 442.5,93C 445.833,91 449.167,89 452.5,87C 467.546,86.0521 473.046,92.8854 469,107.5C 458.588,118.915 445.755,123.248 430.5,120.5C 431.139,100.973 431.139,81.3066 430.5,61.5C 430.501,50.811 431.168,40.4777 432.5,30.5 Z"/></g>
<g><path style="opacity:0.986" fill="#fbc016" d="M 62.5,46.5 C 61.8333,57.5 61.1667,68.5 60.5,79.5C 54.2409,75.4426 48.4075,70.7759 43,65.5C 38.3518,56.6133 40.1851,49.4466 48.5,44C 52.1667,43.3333 55.8333,43.3333 59.5,44C 60.9423,44.3768 61.9423,45.2101 62.5,46.5 Z"/></g>
<g><path style="opacity:0.978" fill="#f9b91c" d="M 62.5,46.5 C 69.2268,51.8952 76.2268,56.8952 83.5,61.5C 83.5,71.1667 83.5,80.8333 83.5,90.5C 75.1358,88.1501 67.4691,84.4834 60.5,79.5C 61.1667,68.5 61.8333,57.5 62.5,46.5 Z"/></g>
<g><path style="opacity:0.974" fill="#ef7f3e" d="M 227.5,57.5 C 236.5,56.1667 245.5,56.1667 254.5,57.5C 254.5,66.5 254.5,75.5 254.5,84.5C 245.833,84.5 237.167,84.5 228.5,84.5C 228.827,75.3178 228.493,66.3178 227.5,57.5 Z"/></g>
<g><path style="opacity:0.978" fill="#f0863e" d="M 227.5,57.5 C 228.493,66.3178 228.827,75.3178 228.5,84.5C 221.1,85.4466 213.767,86.7799 206.5,88.5C 206.5,79.1667 206.5,69.8333 206.5,60.5C 213.203,58.3302 220.203,57.3302 227.5,57.5 Z"/></g>
<g><path style="opacity:0.985" fill="#ee793d" d="M 254.5,57.5 C 262.117,57.3984 269.45,58.3984 276.5,60.5C 276.5,69.8333 276.5,79.1667 276.5,88.5C 269.233,86.7799 261.9,85.4466 254.5,84.5C 254.5,75.5 254.5,66.5 254.5,57.5 Z"/></g>
<g><path style="opacity:0.977" fill="#f18e3e" d="M 206.5,60.5 C 206.5,69.8333 206.5,79.1667 206.5,88.5C 193.711,91.9849 181.378,96.6516 169.5,102.5C 169.5,92.5 169.5,82.5 169.5,72.5C 181.1,66.5231 193.433,62.5231 206.5,60.5 Z"/></g>
<g><path style="opacity:0.981" fill="#ed6f3b" d="M 276.5,60.5 C 291.995,63.1093 306.661,68.1093 320.5,75.5C 320.5,86.1667 320.5,96.8333 320.5,107.5C 306.884,98.8461 292.217,92.5128 276.5,88.5C 276.5,79.1667 276.5,69.8333 276.5,60.5 Z"/></g>
<g><path style="opacity:0.982" fill="#f39937" d="M 169.5,72.5 C 169.5,82.5 169.5,92.5 169.5,102.5C 163.377,107.068 157.044,111.401 150.5,115.5C 150.5,104.5 150.5,93.5 150.5,82.5C 156.356,78.3235 162.689,74.9901 169.5,72.5 Z"/></g>
<g><path style="opacity:0.977" fill="#ec663a" d="M 320.5,75.5 C 329.209,79.513 337.209,84.513 344.5,90.5C 344.5,102.5 344.5,114.5 344.5,126.5C 337.075,119.405 329.075,113.072 320.5,107.5C 320.5,96.8333 320.5,86.1667 320.5,75.5 Z"/></g>
<g><path style="opacity:0.973" fill="#f5a62c" d="M 118.5,73.5 C 124.805,79.1006 128.805,86.1006 130.5,94.5C 131.959,94.5674 133.292,94.2341 134.5,93.5C 133.855,105.548 134.522,117.215 136.5,128.5C 130.092,135.567 124.092,142.901 118.5,150.5C 118.5,124.833 118.5,99.1667 118.5,73.5 Z"/></g>
<g><path style="opacity:0.985" fill="#e95439" d="M 405.5,81.5 C 406.494,91.6532 406.828,101.986 406.5,112.5C 401.822,109.899 398.322,111.232 396,116.5C 393.153,123.054 391.32,129.888 390.5,137C 397.11,150.059 402.776,163.559 407.5,177.5C 406.501,217.663 406.168,257.997 406.5,298.5C 404.856,298.286 403.356,298.62 402,299.5C 397.899,308.713 393.066,317.38 387.5,325.5C 386.833,302.833 386.167,280.167 385.5,257.5C 389.383,239.188 389.383,220.855 385.5,202.5C 386.499,164.337 386.832,126.004 386.5,87.5C 387.6,86.4415 388.934,85.6082 390.5,85C 395.657,84.2368 400.657,83.0702 405.5,81.5 Z"/></g>
<g><path style="opacity:0.98" fill="#f49f32" d="M 150.5,82.5 C 150.5,93.5 150.5,104.5 150.5,115.5C 145.859,119.805 141.193,124.139 136.5,128.5C 134.522,117.215 133.855,105.548 134.5,93.5C 139.278,89.0599 144.612,85.3932 150.5,82.5 Z"/></g>
<g><path style="opacity:0.983" fill="#ea5b3a" d="M 386.5,87.5 C 386.832,126.004 386.499,164.337 385.5,202.5C 379.13,173.085 365.463,147.752 344.5,126.5C 344.5,114.5 344.5,102.5 344.5,90.5C 352.755,96.5814 360.588,103.248 368,110.5C 370.577,104.34 373.91,98.6729 378,93.5C 380.629,91.1118 383.462,89.1118 386.5,87.5 Z"/></g>
<g><path style="opacity:0.981" fill="#f8b222" d="M 101.5,126.5 C 102.497,144.993 102.83,163.659 102.5,182.5C 94.1056,208.443 92.6056,234.776 98,261.5C 99.739,268.214 101.572,274.88 103.5,281.5C 102.503,299.326 102.17,317.326 102.5,335.5C 95.1811,326.212 88.8478,316.212 83.5,305.5C 84.4989,255.669 84.8322,205.669 84.5,155.5C 88.9429,145.071 94.6096,135.404 101.5,126.5 Z"/></g>
<g><path style="opacity:0.976" fill="#f08d3f" d="M 207.5,137.5 C 206.507,146.318 206.173,155.318 206.5,164.5C 196.603,163.384 188.27,166.384 181.5,173.5C 181.81,162.419 181.477,151.419 180.5,140.5C 189.406,137.173 198.406,136.173 207.5,137.5 Z"/></g>
<g><path style="opacity:0.98" fill="#f2943b" d="M 180.5,140.5 C 181.477,151.419 181.81,162.419 181.5,173.5C 173.505,185.128 173.505,196.795 181.5,208.5C 181.5,219.167 181.5,229.833 181.5,240.5C 173.81,238.143 167.477,233.809 162.5,227.5C 162.831,202.994 162.498,178.661 161.5,154.5C 166.684,148.321 173.018,143.655 180.5,140.5 Z"/></g>
<g><path style="opacity:0.985" fill="#ef823e" d="M 207.5,137.5 C 228.828,140.328 243.661,151.661 252,171.5C 260.835,204.659 249.668,228.159 218.5,242C 214.246,243.314 209.913,244.147 205.5,244.5C 206.471,235.584 206.804,226.584 206.5,217.5C 205.209,217.737 204.209,217.404 203.5,216.5C 218.034,213.963 226.034,205.297 227.5,190.5C 226.34,177.016 219.34,168.349 206.5,164.5C 206.173,155.318 206.507,146.318 207.5,137.5 Z"/></g>
<g><path style="opacity:0.988" fill="#f39a36" d="M 161.5,154.5 C 162.498,178.661 162.831,202.994 162.5,227.5C 152.459,217.563 147.459,205.397 147.5,191C 147.178,176.782 151.845,164.616 161.5,154.5 Z"/></g>
<g><path style="opacity:0.989" fill="#f9b81d" d="M 84.5,155.5 C 84.8322,205.669 84.4989,255.669 83.5,305.5C 67.178,269.584 63.0113,232.251 71,193.5C 73.8453,180.124 78.3453,167.457 84.5,155.5 Z"/></g>
<g><path style="opacity:0.973" fill="#e84e39" d="M 407.5,177.5 C 416.564,207.774 417.897,238.441 411.5,269.5C 411.833,270.167 412.167,270.833 412.5,271.5C 419.467,273.312 425.467,276.645 430.5,281.5C 430.83,302.007 430.497,322.34 429.5,342.5C 422.464,337.266 417.964,330.266 416,321.5C 415.333,316.167 414.667,310.833 414,305.5C 412.258,302.254 409.758,299.921 406.5,298.5C 406.168,257.997 406.501,217.663 407.5,177.5 Z"/></g>
<g><path style="opacity:0.977" fill="#f08c3f" d="M 181.5,208.5 C 187.562,214.522 194.895,217.188 203.5,216.5C 204.209,217.404 205.209,217.737 206.5,217.5C 206.804,226.584 206.471,235.584 205.5,244.5C 197.02,245.244 189.02,243.91 181.5,240.5C 181.5,229.833 181.5,219.167 181.5,208.5 Z"/></g>
<g><path style="opacity:0.983" fill="#ec6c3b" d="M 298.5,288.5 C 298.829,274.323 298.496,260.323 297.5,246.5C 299.307,240.328 300.474,233.995 301,227.5C 306.302,217.772 313.802,215.606 323.5,221C 326.741,224.103 328.407,227.936 328.5,232.5C 327.903,253.485 319.903,270.985 304.5,285C 302.612,286.394 300.612,287.56 298.5,288.5 Z"/></g>
<g><path style="opacity:0.973" fill="#ea5b3a" d="M 385.5,257.5 C 386.167,280.167 386.833,302.833 387.5,325.5C 376.459,343.236 362.459,358.236 345.5,370.5C 344.505,359.012 344.172,347.345 344.5,335.5C 366.026,313.788 379.692,287.788 385.5,257.5 Z"/></g>
<g><path style="opacity:0.982" fill="#ed743c" d="M 297.5,246.5 C 298.496,260.323 298.829,274.323 298.5,288.5C 291.61,293.246 283.944,296.246 275.5,297.5C 262.954,294.742 259.121,287.409 264,275.5C 265.167,274.333 266.333,273.167 267.5,272C 282.296,269.031 292.296,260.531 297.5,246.5 Z"/></g>
<g><path style="opacity:0.988" fill="#f6ab27" d="M 103.5,281.5 C 108.021,292.207 113.354,302.54 119.5,312.5C 118.502,345.329 118.168,378.329 118.5,411.5C 118.5,412.5 118.5,413.5 118.5,414.5C 118.178,436.242 118.512,457.909 119.5,479.5C 114.351,485.447 108.017,486.947 100.5,484C 94.2058,479.121 92.3725,472.954 95,465.5C 98.7399,461.689 101.74,457.356 104,452.5C 104.809,448.305 104.309,444.305 102.5,440.5C 102.831,412.662 102.498,384.995 101.5,357.5C 103.749,353.246 106.415,349.246 109.5,345.5C 107.116,342.131 104.783,338.797 102.5,335.5C 102.17,317.326 102.503,299.326 103.5,281.5 Z"/></g>
<g><path style="opacity:0.982" fill="#e74639" d="M 430.5,281.5 C 433.852,284.695 436.685,288.362 439,292.5C 441.38,301.448 443.38,310.448 445,319.5C 446.579,321.041 448.413,322.208 450.5,323C 467.572,324.01 472.738,332.176 466,347.5C 464.421,349.041 462.587,350.208 460.5,351C 448.799,352.661 438.466,349.828 429.5,342.5C 430.497,322.34 430.83,302.007 430.5,281.5 Z"/></g>
<g><path style="opacity:0.976" fill="#f5a62c" d="M 119.5,312.5 C 124.248,318.976 129.248,325.309 134.5,331.5C 134.5,343.833 134.5,356.167 134.5,368.5C 133.102,366.891 131.435,366.058 129.5,366C 127.288,368.921 125.455,372.088 124,375.5C 122.418,387.677 120.584,399.677 118.5,411.5C 118.168,378.329 118.502,345.329 119.5,312.5 Z"/></g>
<g><path style="opacity:0.986" fill="#f49f32" d="M 134.5,331.5 C 139.895,336.901 145.562,341.901 151.5,346.5C 150.505,357.321 150.172,368.321 150.5,379.5C 144.782,376.314 139.448,372.648 134.5,368.5C 134.5,356.167 134.5,343.833 134.5,331.5 Z"/></g>
<g><path style="opacity:0.984" fill="#f39937" d="M 151.5,346.5 C 157.228,350.892 163.228,354.892 169.5,358.5C 169.808,368.915 169.475,379.249 168.5,389.5C 162.143,386.658 156.143,383.325 150.5,379.5C 150.172,368.321 150.505,357.321 151.5,346.5 Z"/></g>
<g><path style="opacity:0.987" fill="#ec6a3b" d="M 344.5,335.5 C 344.172,347.345 344.505,359.012 345.5,370.5C 336.717,377.399 327.384,383.566 317.5,389C 320.117,392.62 323.117,395.953 326.5,399C 331.941,402.807 337.108,406.973 342,411.5C 342.383,410.944 342.883,410.611 343.5,410.5C 344.484,426.089 344.817,441.756 344.5,457.5C 333.402,441.902 320.069,428.402 304.5,417C 301.906,414.914 299.906,412.414 298.5,409.5C 298.5,395.5 298.5,381.5 298.5,367.5C 297.5,367.5 296.5,367.5 295.5,367.5C 313.642,359.596 329.976,348.929 344.5,335.5 Z"/></g>
<g><path style="opacity:0.971" fill="#f8b123" d="M 101.5,357.5 C 102.498,384.995 102.831,412.662 102.5,440.5C 97.1395,445.182 91.1395,448.848 84.5,451.5C 84.5,440.833 84.5,430.167 84.5,419.5C 88.021,415.108 90.521,410.108 92,404.5C 93.0438,393.476 94.3771,382.476 96,371.5C 97.3514,366.607 99.1847,361.94 101.5,357.5 Z"/></g>
<g><path style="opacity:0.974" fill="#f18e3f" d="M 169.5,358.5 C 181.277,364.889 193.61,369.889 206.5,373.5C 206.805,382.917 206.472,392.25 205.5,401.5C 192.686,398.924 180.353,394.924 168.5,389.5C 169.475,379.249 169.808,368.915 169.5,358.5 Z"/></g>
<g><path style="opacity:0.978" fill="#f0863e" d="M 206.5,373.5 C 214.276,374.962 221.943,376.295 229.5,377.5C 228.507,386.318 228.173,395.318 228.5,404.5C 220.721,404.236 213.054,403.236 205.5,401.5C 206.472,392.25 206.805,382.917 206.5,373.5 Z"/></g>
<g><path style="opacity:0.978" fill="#ed773c" d="M 295.5,367.5 C 296.5,367.5 297.5,367.5 298.5,367.5C 298.5,381.5 298.5,395.5 298.5,409.5C 294.878,406.278 291.712,402.612 289,398.5C 277.782,401.953 266.282,403.953 254.5,404.5C 254.5,395.5 254.5,386.5 254.5,377.5C 268.396,375.61 282.063,372.277 295.5,367.5 Z"/></g>
<g><path style="opacity:0.98" fill="#ef7f3e" d="M 229.5,377.5 C 237.833,377.5 246.167,377.5 254.5,377.5C 254.5,386.5 254.5,395.5 254.5,404.5C 245.833,405.833 237.167,405.833 228.5,404.5C 228.173,395.318 228.507,386.318 229.5,377.5 Z"/></g>
<g><path style="opacity:0.982" fill="#ea5e3a" d="M 388.5,405.5 C 386.569,414.57 385.903,423.903 386.5,433.5C 378.116,432.033 369.783,432.2 361.5,434C 373.43,448.118 378.264,464.284 376,482.5C 372.158,489.453 366.325,491.953 358.5,490C 354.333,488.5 351.5,485.667 350,481.5C 350.05,473.034 348.216,465.034 344.5,457.5C 344.817,441.756 344.484,426.089 343.5,410.5C 358.002,404.748 373.002,403.081 388.5,405.5 Z"/></g>
<g><path style="opacity:0.967" fill="#e8503a" d="M 388.5,405.5 C 402.088,408.192 414.255,413.859 425,422.5C 429.89,434.386 426.057,441.719 413.5,444.5C 404.308,441.063 395.308,437.396 386.5,433.5C 385.903,423.903 386.569,414.57 388.5,405.5 Z"/></g>
<g><path style="opacity:0.944" fill="#f5a62c" d="M 118.5,414.5 C 136.655,435.979 136.989,457.645 119.5,479.5C 118.512,457.909 118.178,436.242 118.5,414.5 Z"/></g>
<g><path style="opacity:0.994" fill="#f9ba1b" d="M 84.5,419.5 C 84.5,430.167 84.5,440.833 84.5,451.5C 77.3665,455.206 69.6998,457.539 61.5,458.5C 61.8055,449.083 61.4721,439.75 60.5,430.5C 69.5314,428.983 77.5314,425.316 84.5,419.5 Z"/></g>
<g><path style="opacity:0.969" fill="#fbc215" d="M 60.5,430.5 C 61.4721,439.75 61.8055,449.083 61.5,458.5C 46.8437,460.998 40.0104,454.998 41,440.5C 42.0608,437.438 43.8941,434.938 46.5,433C 51.0724,431.627 55.739,430.794 60.5,430.5 Z"/></g>
</svg>
